<?xml version="1.0" standalone="no"?>
<!DOCTYPE svg PUBLIC "-//W3C//DTD SVG 20010904//EN"
 "http://www.w3.org/TR/2001/REC-SVG-20010904/DTD/svg10.dtd">
<svg version="1.0" xmlns="http://www.w3.org/2000/svg"
 width="980.000000pt" height="600.000000pt" viewBox="0 0 980.000000 600.000000"
 preserveAspectRatio="xMidYMid meet">

<g transform="translate(0.000000,600.000000) scale(0.100000,-0.100000)"
fill="#000000" stroke="none">
<path d="M934 4995 c4 -438 6 -464 56 -570 56 -117 192 -236 340 -298 36 -14
316 -112 623 -218 452 -154 563 -189 590 -184 48 10 243 105 327 160 95 62
210 176 239 237 20 42 21 52 11 85 -29 92 -93 174 -183 235 -91 62 -169 93
-357 143 -417 111 -1062 331 -1255 427 -208 104 -332 218 -379 349 -15 41 -16
18 -12 -366z"/>
<path d="M3490 3205 l0 -1955 30 0 30 0 0 1955 0 1955 -30 0 -30 0 0 -1955z"/>
<path d="M4119 4960 c-47 -14 -78 -41 -94 -83 -14 -37 -15 -134 -13 -864 3
-813 3 -822 24 -850 37 -51 77 -63 202 -63 l112 0 0 331 0 330 213 -3 c191 -3
215 -5 246 -23 30 -18 46 -47 152 -289 65 -147 126 -277 136 -288 10 -11 35
-29 56 -39 32 -17 56 -19 182 -17 l144 3 -131 300 c-72 165 -146 322 -165 348
-32 46 -33 50 -16 63 10 7 21 14 25 14 21 1 131 107 171 167 74 108 100 193
105 343 3 94 0 141 -13 189 -55 213 -234 395 -424 431 -63 12 -873 12 -912 0z
m874 -344 c82 -35 141 -140 141 -252 0 -61 -4 -80 -34 -140 -37 -73 -73 -106
-139 -124 -20 -5 -162 -10 -323 -10 l-288 0 0 270 0 270 305 0 c238 0 313 -3
338 -14z"/>
<path d="M6690 4952 c-154 -40 -265 -145 -322 -303 -23 -63 -23 -69 -26 -579
-3 -563 0 -607 54 -717 32 -66 113 -156 171 -190 105 -61 123 -63 599 -63
l434 0 0 108 c0 119 -13 159 -63 196 -27 20 -44 21 -392 26 -347 5 -365 6
-391 26 -66 49 -69 60 -69 242 l0 167 410 5 c455 6 443 4 485 73 17 27 20 51
20 144 l0 113 -457 2 -458 3 -3 148 c-2 128 0 154 17 192 36 81 28 79 436 85
337 5 362 6 394 25 57 34 71 73 71 202 l0 113 -422 -1 c-365 0 -432 -3 -488
-17z"/>
<path d="M8656 4960 c-35 -11 -63 -36 -85 -75 -14 -27 -16 -108 -16 -855 l0
-825 23 -36 c34 -56 72 -69 201 -69 l111 0 0 935 0 935 -102 -1 c-57 0 -116
-5 -132 -9z"/>
<path d="M3116 4063 c-25 -60 -127 -168 -218 -228 -171 -115 -240 -143 -883
-350 -656 -212 -759 -252 -882 -349 -130 -102 -186 -202 -209 -378 -18 -136
-30 -577 -19 -703 l7 -90 19 50 c48 129 190 259 384 355 167 83 557 211 1154
380 140 40 284 85 321 100 146 60 262 156 312 258 22 45 23 61 31 357 4 171 6
385 5 477 l-3 168 -19 -47z"/>
<path d="M5821 3442 c-66 -33 -76 -57 -80 -209 l-3 -135 123 4 c189 5 209 27
209 232 l0 126 -107 0 c-83 0 -116 -4 -142 -18z"/>
<path d="M7980 3441 c-61 -32 -75 -69 -79 -213 l-3 -128 114 0 c191 0 217 27
226 230 l5 130 -114 0 c-92 0 -121 -4 -149 -19z"/>
<path d="M1302 2270 c-168 -89 -284 -193 -340 -305 -38 -75 -37 -102 3 -182
85 -170 216 -262 535 -376 601 -215 1077 -394 1150 -434 202 -109 365 -248
415 -355 l25 -53 0 496 0 495 -26 52 c-36 72 -136 161 -237 210 -45 22 -145
59 -222 82 -292 86 -677 220 -997 346 -103 41 -193 74 -200 74 -7 0 -55 -23
-106 -50z"/>
</g>
</svg>
